# xmcd
#
# Track frame offsets: 
#        150
#        18042
#        35707
#        49092
#        68190
#        87620
#        104177
#        116077
#        134970
#        151185
#        167920
#        188097
#
# Disc length: 2701 seconds
#
# Revision: 1
# Processed by: cddbd v1.5.2PL0 Copyright (c) Steve Scherf et al.
# Submitted via: ExactAudioCopyFreeDBPlugin 1.0
#
DISCID=af0a8b0c
DTITLE=ยิว คนเขียนเพลง - Bonus 2
DYEAR=1900
DGENRE=Country
TTITLE0=แม่โขง
TTITLE1=ดอกไม้แทนใจ
TTITLE2=สาวอาชีวะ
TTITLE3=จากเธอที่ภูเก็ต
TTITLE4=ใจคนรอ
TTITLE5=ปาฏิหารย์
TTITLE6=จุ๊หมาน้อยขึ้นดอย
TTITLE7=ผ้าห่มใจ
TTITLE8=ระบำชาวเล
TTITLE9=ด้วยแรงแห่งรัก
TTITLE10=ห่วงใย
TTITLE11=พ่อจ๋า
EXTD=
EXTT0=
EXTT1=
EXTT2=
EXTT3=
EXTT4=
EXTT5=
EXTT6=
EXTT7=
EXTT8=
EXTT9=
EXTT10=
EXTT11=
PLAYORDER=
